%TF.GenerationSoftware,KiCad,Pcbnew,8.0.5-1.fc40*%
%TF.CreationDate,2024-10-20T23:35:03+02:00*%
%TF.ProjectId,fro_dux-v1,66726f5f-6475-4782-9d76-312e6b696361,v1.0.0*%
%TF.SameCoordinates,Original*%
%TF.FileFunction,Profile,NP*%
%FSLAX46Y46*%
G04 Gerber Fmt 4.6, Leading zero omitted, Abs format (unit mm)*
G04 Created by KiCad (PCBNEW 8.0.5-1.fc40) date 2024-10-20 23:35:03*
%MOMM*%
%LPD*%
G01*
G04 APERTURE LIST*
%TA.AperFunction,Profile*%
%ADD10C,0.150000*%
%TD*%
%TA.AperFunction,Profile*%
%ADD11C,0.050000*%
%TD*%
G04 APERTURE END LIST*
D10*
X104212524Y119749815D02*
G75*
G02*
X102220124Y121575504I-24J1999985D01*
G01*
D11*
X133000001Y22500000D02*
X133000001Y22500000D01*
X133000001Y22500000D01*
X133000001Y22500000D01*
X133000001Y22500000D01*
X133000001Y22500000D01*
X133000001Y22500000D01*
X133000001Y22499999D01*
X133000001Y22499999D01*
X133000001Y22499999D01*
X133000001Y22499999D01*
X133000001Y22499999D01*
X133000001Y22499999D01*
X133000000Y22499999D01*
X133000000Y22499999D01*
X133000000Y22499999D01*
X133000000Y22499999D01*
X133000000Y22499999D01*
X133000000Y22499999D01*
X133000000Y22499999D01*
X133000000Y22499999D01*
X133000000Y22499999D01*
X133000000Y22499999D01*
X133000000Y22499999D01*
X133000000Y22499999D01*
X132999999Y22499999D01*
X132999999Y22499999D01*
X132999999Y22499999D01*
X132999999Y22499999D01*
X132999999Y22499999D01*
X132999999Y22500000D01*
X132999999Y22500000D01*
X132999999Y22500000D01*
X132999999Y22500000D01*
X132999999Y22500000D01*
X132999999Y22500000D01*
X132999999Y22500000D01*
X132999999Y22500000D02*
X132999999Y22500000D01*
X132999999Y22500000D01*
X132999999Y22500000D01*
X132999999Y22500000D01*
X132999999Y22500000D01*
X132999999Y22500001D01*
X132999999Y22500001D01*
X132999999Y22500001D01*
X132999999Y22500001D01*
X132999999Y22500001D01*
X132999999Y22500001D01*
X133000000Y22500001D01*
X133000000Y22500001D01*
X133000000Y22500001D01*
X133000000Y22500001D01*
X133000000Y22500001D01*
X133000000Y22500001D01*
X133000000Y22500001D01*
X133000000Y22500001D01*
X133000000Y22500001D01*
X133000000Y22500001D01*
X133000000Y22500001D01*
X133000000Y22500001D01*
X133000001Y22500001D01*
X133000001Y22500001D01*
X133000001Y22500001D01*
X133000001Y22500001D01*
X133000001Y22500001D01*
X133000001Y22500001D01*
X133000001Y22500001D01*
X133000001Y22500000D01*
X133000001Y22500000D01*
X133000001Y22500000D01*
X133000001Y22500000D01*
X133000001Y22500000D01*
X133000001Y22500000D01*
D10*
X82233091Y118259454D02*
G75*
G02*
X80588005Y116115481I-1992391J-174354D01*
G01*
X157409315Y29528414D02*
G75*
G02*
X155459445Y28922594I-1259315J612386D01*
G01*
X60120825Y110475759D02*
X62576774Y96547382D01*
X103500000Y42500000D02*
X76148965Y42467382D01*
X164411086Y46000000D02*
G75*
G02*
X164191861Y44115551I-6112386J-243900D01*
G01*
X83834124Y122906984D02*
X99972478Y124318907D01*
X58090380Y37708445D02*
G75*
G02*
X55592955Y39036289I-584780J1912655D01*
G01*
X58090381Y37708444D02*
X71518873Y41813947D01*
X125511087Y116916483D02*
X142511087Y116916483D01*
X162411087Y114966483D02*
X144510462Y114966483D01*
X104212524Y119749816D02*
X123511087Y119749816D01*
X71518873Y41813947D02*
G75*
G02*
X76148965Y42467369I4385527J-14344547D01*
G01*
X41208340Y86086505D02*
X55593028Y39036311D01*
X99972478Y124318908D02*
G75*
G02*
X102139207Y122500831I174322J-1992408D01*
G01*
X123511087Y119749816D02*
G75*
G02*
X125511116Y117749816I13J-2000016D01*
G01*
X60120826Y110475759D02*
G75*
G02*
X61743143Y112792675I1969614J347301D01*
G01*
X142511087Y116916483D02*
G75*
G02*
X144510458Y114966483I13J-1999983D01*
G01*
X41208341Y86086504D02*
G75*
G02*
X42536205Y88583859I1912609J584746D01*
G01*
X102139179Y122500829D02*
X102220134Y121575505D01*
X61743144Y112792671D02*
X80587997Y116115527D01*
X62576773Y96547382D02*
G75*
G02*
X61191889Y94287520I-1969573J-347282D01*
G01*
X82016046Y120740284D02*
G75*
G02*
X83834126Y122906958I1992354J174316D01*
G01*
X42536206Y88583857D02*
X61191902Y94287476D01*
X125511087Y117749816D02*
X125511087Y116916483D01*
X82233090Y118259454D02*
X82016046Y120740283D01*
X162411087Y114966483D02*
G75*
G02*
X164411083Y112966483I13J-1999983D01*
G01*
X164411087Y46000000D02*
X164411087Y112966483D01*
X164191868Y44115549D02*
X157409315Y29528414D01*
X103500000Y42499999D02*
G75*
G02*
X155459448Y28922600I-3408000J-119252799D01*
G01*
M02*
