M48
; DRILL file {KiCad 8.0.5-1.fc40} date 2024-10-20T23:34:58+0200
; FORMAT={-:-/ absolute / inch / decimal}
; #@! TF.CreationDate,2024-10-20T23:34:58+02:00
; #@! TF.GenerationSoftware,Kicad,Pcbnew,8.0.5-1.fc40
; #@! TF.FileFunction,NonPlated,1,2,NPTH
FMAT,2
INCH
; #@! TA.AperFunction,NonPlated,NPTH,ComponentDrill
T1C0.0354
; #@! TA.AperFunction,NonPlated,NPTH,ComponentDrill
T2C0.0670
; #@! TA.AperFunction,NonPlated,NPTH,ComponentDrill
T3C0.1181
; #@! TA.AperFunction,NonPlated,NPTH,ComponentDrill
T4C0.1350
%
G90
G05
T1
X6.3941Y2.9455
X6.3941Y2.8274
T2
X1.883Y3.156
X1.883Y3.156
X2.0787Y2.516
X2.0787Y2.516
X2.2744Y1.876
X2.2744Y1.876
X2.2972Y3.2827
X2.2972Y3.2827
X2.4929Y2.6426
X2.4929Y2.6426
X2.5973Y4.0862
X2.5973Y4.0862
X2.6886Y2.0026
X2.6886Y2.0026
X2.7135Y3.4271
X2.7135Y3.4271
X2.8297Y2.768
X2.8297Y2.768
X3.0238Y4.1614
X3.0238Y4.1614
X3.14Y3.5023
X3.14Y3.5023
X3.2562Y2.8432
X3.2562Y2.8432
X3.4355Y4.4713
X3.4355Y4.4713
X3.4938Y3.8045
X3.4938Y3.8045
X3.5521Y3.1378
X3.5521Y3.1378
X3.8669Y4.509
X3.8669Y4.509
X3.9252Y3.8423
X3.9252Y3.8423
X3.9836Y3.1755
X3.9836Y3.1755
X4.2759Y2.0348
X4.2759Y2.0348
X4.3272Y4.3366
X4.3272Y4.3366
X4.3272Y3.6673
X4.3272Y3.6673
X4.3272Y2.998
X4.3272Y2.998
X4.7073Y1.997
X4.7073Y1.997
X4.7603Y4.3366
X4.7603Y4.3366
X4.7603Y3.6673
X4.7603Y3.6673
X4.7603Y2.998
X4.7603Y2.998
X5.0396Y1.9374
X5.0396Y1.9374
X5.0752Y4.2251
X5.0752Y4.2251
X5.0752Y3.5558
X5.0752Y3.5558
X5.0752Y2.8865
X5.0752Y2.8865
X5.4579Y1.8253
X5.4579Y1.8253
X5.5083Y4.2251
X5.5083Y4.2251
X5.5083Y3.5558
X5.5083Y3.5558
X5.5083Y2.8865
X5.5083Y2.8865
X5.7757Y1.709
X5.7757Y1.709
X6.1682Y1.526
X6.1682Y1.526
T3
X1.8587Y3.303
X2.0216Y3.4434
X2.0216Y3.4434
X2.0544Y2.6629
X2.2173Y2.8033
X2.2173Y2.8033
X2.2352Y3.4181
X2.2501Y2.0229
X2.413Y2.1633
X2.413Y2.1633
X2.4309Y2.778
X2.591Y4.235
X2.6266Y2.138
X2.7072Y3.5759
X2.7698Y4.3545
X2.7698Y4.3545
X2.8235Y2.9168
X2.8861Y3.6954
X2.8861Y3.6954
X2.9787Y4.3034
X3.0023Y3.0363
X3.0023Y3.0363
X3.095Y3.6443
X3.2112Y2.9852
X3.4422Y4.6201
X3.5005Y3.9533
X3.5589Y3.2866
X3.6308Y4.7235
X3.6308Y4.7235
X3.6891Y4.0568
X3.6891Y4.0568
X3.7474Y3.39
X3.7474Y3.39
X3.8344Y4.6544
X3.8927Y3.9876
X3.9511Y3.3209
X4.3083Y2.1802
X4.3469Y4.4842
X4.3469Y3.815
X4.3469Y3.1457
X4.512Y2.2493
X4.512Y2.2493
X4.5437Y4.5709
X4.5437Y4.5709
X4.5437Y3.9016
X4.5437Y3.9016
X4.5437Y3.2323
X4.5437Y3.2323
X4.7005Y2.1458
X4.7406Y4.4842
X4.7406Y3.815
X4.7406Y3.1457
X5.0949Y4.3727
X5.0949Y3.7034
X5.0949Y3.0341
X5.0968Y2.0749
X5.2918Y4.4593
X5.2918Y4.4593
X5.2918Y3.79
X5.2918Y3.79
X5.2918Y3.1207
X5.2918Y3.1207
X5.3094Y2.1076
X5.3094Y2.1076
X5.4771Y1.973
X5.4886Y4.3727
X5.4886Y3.7034
X5.4886Y3.0341
X5.856Y1.8345
X6.071Y1.8298
X6.071Y1.8298
X6.2128Y1.6681
T4
X2.0901Y3.2194
X2.0901Y3.2194
X2.2858Y2.5793
X2.2858Y2.5793
X2.4815Y1.9393
X2.4815Y1.9393
X2.8105Y4.1238
X2.8105Y4.1238
X2.9267Y3.4647
X2.9267Y3.4647
X3.043Y2.8056
X3.043Y2.8056
X3.6512Y4.4901
X3.6512Y4.4901
X3.7095Y3.8234
X3.7095Y3.8234
X3.7678Y3.1566
X3.7678Y3.1566
X4.4916Y2.0159
X4.4916Y2.0159
X4.5437Y4.3366
X4.5437Y4.3366
X4.5437Y3.6673
X4.5437Y3.6673
X4.5437Y2.998
X4.5437Y2.998
X5.2487Y1.8814
X5.2487Y1.8814
X5.2918Y4.2251
X5.2918Y4.2251
X5.2918Y3.5558
X5.2918Y3.5558
X5.2918Y2.8865
X5.2918Y2.8865
X5.972Y1.6175
X5.972Y1.6175
M30
