M48
; DRILL file {KiCad 8.0.5-1.fc40} date 2024-10-20T23:34:58+0200
; FORMAT={-:-/ absolute / inch / decimal}
; #@! TF.CreationDate,2024-10-20T23:34:58+02:00
; #@! TF.GenerationSoftware,Kicad,Pcbnew,8.0.5-1.fc40
; #@! TF.FileFunction,Plated,1,2,PTH
FMAT,2
INCH
; #@! TA.AperFunction,Plated,PTH,ViaDrill
T1C0.0157
; #@! TA.AperFunction,Plated,PTH,ComponentDrill
T2C0.0430
; #@! TA.AperFunction,Plated,PTH,ComponentDrill
T3C0.0500
; #@! TA.AperFunction,Plated,PTH,ComponentDrill
T4C0.0512
%
G90
G05
T1
X5.993Y2.701
X6.243Y2.886
T2
X5.7792Y4.442
X5.7792Y4.342
X5.7792Y4.242
X5.7792Y4.142
X5.7792Y4.042
X5.7792Y3.942
X5.7792Y3.842
X5.7792Y3.742
X5.7792Y3.642
X5.7792Y3.542
X5.7792Y3.442
X5.7792Y3.342
X5.7792Y3.242
X6.0004Y2.1975
X6.0792Y2.1975
X6.1579Y2.1975
X6.3792Y4.442
X6.3792Y4.342
X6.3792Y4.242
X6.3792Y4.142
X6.3792Y4.042
X6.3792Y3.942
X6.3792Y3.842
X6.3792Y3.742
X6.3792Y3.642
X6.3792Y3.542
X6.3792Y3.442
X6.3792Y3.342
X6.3792Y3.242
T3
X1.9456Y3.0187
X2.1413Y2.3787
X2.158Y2.9972
X2.158Y2.9972
X2.3221Y3.1338
X2.337Y1.7386
X2.3537Y2.3572
X2.3537Y2.3572
X2.5178Y2.4938
X2.5494Y1.7171
X2.5494Y1.7171
X2.6426Y3.9423
X2.7135Y1.8537
X2.7589Y3.2832
X2.8509Y3.8951
X2.8509Y3.8951
X2.8751Y2.6241
X2.9671Y3.2359
X2.9671Y3.2359
X3.0304Y4.0107
X3.0833Y2.5768
X3.0833Y2.5768
X3.1466Y3.3515
X3.2628Y2.6924
X3.4681Y4.3239
X3.5265Y3.6572
X3.5848Y2.9905
X3.6714Y4.2587
X3.6714Y4.2587
X3.7298Y3.592
X3.7298Y3.592
X3.7881Y2.9252
X3.7881Y2.9252
X3.8603Y4.3583
X3.9187Y3.6915
X3.977Y3.0248
X4.2824Y1.884
X4.3469Y4.187
X4.3469Y3.5177
X4.3469Y2.8484
X4.4713Y1.7845
X4.4713Y1.7845
X4.5437Y4.1043
X4.5437Y4.1043
X4.5437Y3.435
X4.5437Y3.435
X4.5437Y2.7657
X4.5437Y2.7657
X4.6746Y1.8497
X4.7406Y4.187
X4.7406Y3.5177
X4.7406Y2.8484
X5.0199Y1.7878
X5.0949Y4.0755
X5.0949Y3.4062
X5.0949Y2.7369
X5.1886Y1.657
X5.1886Y1.657
X5.2918Y3.9928
X5.2918Y3.9928
X5.2918Y3.3235
X5.2918Y3.3235
X5.2918Y2.6542
X5.2918Y2.6542
X5.4002Y1.6859
X5.4886Y4.0755
X5.4886Y3.4062
X5.4886Y2.7369
X5.7304Y1.5651
X5.8738Y1.407
X5.8738Y1.407
X6.0872Y1.3987
T4
X6.3745Y2.4632
X6.3745Y2.2073
M30
